<?xml version="1.0" encoding="UTF-8"?>
<svg id="Layer_2" data-name="Layer 2" xmlns="http://www.w3.org/2000/svg" viewBox="0 0 1752.28 896.67">
  <defs>
    <style>
      .cls-1, .cls-2 {
        stroke-width: 0px;
      }

      .cls-2 {
        fill: #fff;
      }
    </style>
  </defs>
  <g id="Layer_1-2" data-name="Layer 1">
    <g>
      <rect class="cls-2" width="1752.28" height="896.67"/>
      <g>
        <g>
          <path class="cls-1" d="m659.43,361.33c-9.71-4.94-22.03-7.42-36.96-7.42h-66.9v188.84h29.68v-75.54h37.23c15.11,0,27.52-2.56,37.23-7.69,9.71-5.13,16.9-12,21.58-20.64,4.67-8.63,7.01-17.98,7.01-28.06,0-10.97-2.39-20.73-7.15-29.27-4.77-8.54-12-15.28-21.72-20.23Zm-9.98,72.97c-5.76,5.76-15.29,8.63-28.6,8.63h-35.61v-64.75h35.61c13.31,0,22.84,2.88,28.6,8.63,5.75,5.76,8.63,13.76,8.63,24.01s-2.88,17.72-8.63,23.47Z"/>
          <path class="cls-1" d="m798.5,414.34c-9.81-5.75-21.27-8.63-34.4-8.63s-25.36,2.97-35.61,8.9c-10.25,5.94-18.26,14.26-24.01,24.95-5.76,10.7-8.63,22.98-8.63,36.82s2.92,25.99,8.77,36.42c5.84,10.43,13.85,18.57,24.01,24.42,10.16,5.84,21.89,8.77,35.21,8.77,10.79,0,20.37-1.93,28.73-5.8,8.36-3.87,15.38-9.17,21.04-15.92,5.66-6.74,9.67-14.34,12-22.79h-29.95c-2.52,6.12-6.47,10.97-11.87,14.57-5.4,3.6-12.05,5.4-19.96,5.4-7.01,0-13.45-1.62-19.29-4.86-5.85-3.24-10.57-8.05-14.16-14.43-3.08-5.47-4.83-11.9-5.27-19.29h103.74c.36-2.52.54-4.81.54-6.88v-5.8c0-12.05-2.7-22.93-8.09-32.64-5.4-9.71-12.99-17.44-22.79-23.2Zm-72.92,48.56c.79-5.56,2.38-10.38,4.8-14.43,3.59-6.02,8.36-10.61,14.3-13.76,5.94-3.14,12.41-4.72,19.42-4.72,9.71,0,17.94,2.97,24.68,8.9,6.74,5.94,10.39,13.94,10.93,24.01h-74.13Z"/>
          <path class="cls-1" d="m926.78,405.71c-9.89,0-18.71,2.21-26.44,6.61-7.74,4.41-13.85,10.39-18.35,17.94v-21.31h-29.67v133.81h29.67v-69.06c0-13.67,3.41-24.19,10.25-31.56,6.83-7.37,15.46-11.06,25.9-11.06s18.21,3.2,23.34,9.58c5.13,6.39,7.69,15.87,7.69,28.46v73.65h29.68v-76.62c0-19.96-4.59-35.02-13.76-45.19-9.17-10.16-21.95-15.24-38.31-15.24Z"/>
          <path class="cls-1" d="m1080.28,405.71c-9.89,0-18.71,2.21-26.44,6.61-7.73,4.41-13.85,10.39-18.34,17.94v-21.31h-29.68v133.81h29.68v-69.06c0-13.67,3.41-24.19,10.25-31.56,6.83-7.37,15.47-11.06,25.9-11.06s18.21,3.2,23.34,9.58c5.13,6.39,7.69,15.87,7.69,28.46v73.65h29.67v-76.62c0-19.96-4.58-35.02-13.76-45.19-9.17-10.16-21.94-15.24-38.31-15.24Z"/>
          <rect class="cls-1" x="1159.59" y="408.95" width="29.68" height="133.81"/>
          <rect class="cls-1" x="1158.78" y="353.1" width="31.56" height="32.1"/>
          <path class="cls-1" d="m1327.32,353.91l-69.06,188.84h31.02l16.1-45.59h76.51l16.1,45.59h31.3l-69.06-188.84h-32.91Zm-13.55,119.51l29.87-84.57,29.87,84.57h-59.74Z"/>
          <rect class="cls-1" x="1451.42" y="353.91" width="29.68" height="188.84"/>
        </g>
        <path class="cls-1" d="m358.19,468.47c-.85-1.38-1.74-2.74-2.67-4.07,1.02,1.27,1.91,2.64,2.67,4.07Z"/>
        <path class="cls-1" d="m392.07,464.78c-.59.82-1.16,1.65-1.71,2.5.51-.86,1.07-1.7,1.71-2.5Z"/>
        <path class="cls-1" d="m390.94,520.76c-2.36.31-4.42-1.58-4.42-3.96v-35.61c0-4.92,1.34-9.69,3.82-13.85,0-.03.01-.04.03-.06.55-.85,1.12-1.68,1.71-2.5,6.37-9.11,14.27-17.1,23.32-23.68,9.1-6.61,19.36-11.81,30.44-15.25,4.49-1.4,4.47-7.69-.03-9.07-9.37-2.88-18.1-7.14-26.02-12.52-10.43-7.09-19.45-16.15-26.65-26.65-5.96-8.69-10.68-18.36-13.93-28.72-1.4-4.48-7.72-4.42-9.06.07-2.56,8.59-6.23,16.69-10.88,24.14-8.07,12.94-19.05,23.91-32.05,32.06-7.49,4.72-15.66,8.51-24.32,11.19-4.49,1.4-4.48,7.69.03,9.09,9.86,3.04,19.02,7.57,27.27,13.37,9.86,6.91,18.44,15.59,25.32,25.59.93,1.33,1.82,2.69,2.67,4.07.01.01.03.03.03.04,2.06,3.87,3.17,8.24,3.17,12.7v64.43c0,10.25-6.66,19.32-16.45,22.37l-68.58,18.36c-2.56.79-5.16-1.12-5.16-3.8v-166.68c0-.81,0-1.57.03-2.33,1.26-58.66,50.31-105.55,109.75-103.36,54.28,1.98,98.85,45.79,101.66,100.02,2.93,56.22-38.04,103.46-91.69,110.54Z"/>
        <path class="cls-1" d="m355.52,464.4c1.02,1.27,1.91,2.64,2.67,4.07-.85-1.38-1.74-2.74-2.67-4.07Z"/>
        <path class="cls-1" d="m390.36,467.28c.51-.86,1.07-1.7,1.71-2.5-.59.82-1.16,1.65-1.71,2.5Z"/>
      </g>
    </g>
  </g>
</svg>