<?xml version="1.0" encoding="UTF-8"?>
<svg id="Layer_2" data-name="Layer 2" xmlns="http://www.w3.org/2000/svg" viewBox="0 0 1723.91 1723.91">
  <defs>
    <style>
      .cls-1 {
        fill: #fff;
      }

      .cls-1, .cls-2 {
        stroke-width: 0px;
      }

      .cls-2 {
        fill: #f88379;
      }
    </style>
  </defs>
  <g id="Layer_1-2" data-name="Layer 1">
    <g>
      <rect class="cls-1" width="1723.91" height="1723.91"/>
      <path class="cls-2" d="m915.21,1138.23c-9,1.18-16.87-6.04-16.87-15.1v-135.85c0-18.76,5.12-36.98,14.56-52.83,0-.11.05-.16.11-.22,2.1-3.23,4.26-6.41,6.52-9.54,24.31-34.77,54.45-65.23,88.95-90.35,34.72-25.23,73.86-45.07,116.12-58.17,17.14-5.34,17.04-29.33-.11-34.61-35.74-11-69.06-27.23-99.25-47.76-39.79-27.06-74.18-61.62-101.67-101.67-22.75-33.15-40.76-70.03-53.15-109.54-5.34-17.09-29.43-16.87-34.56.27-9.76,32.78-23.77,63.67-41.51,92.08-30.78,49.38-72.67,91.21-122.27,122.32-28.57,18-59.73,32.45-92.78,42.7-17.14,5.34-17.09,29.33.11,34.66,37.63,11.59,72.56,28.89,104.04,51,37.63,26.36,70.35,59.46,96.61,97.63,3.56,5.07,6.95,10.24,10.19,15.53.05.05.11.11.11.16,7.87,14.77,12.08,31.43,12.08,48.47v245.77c0,39.08-25.39,73.69-62.75,85.34l-261.62,70.03c-9.76,3.02-19.68-4.26-19.68-14.5v-635.86c0-3.07,0-5.98.11-8.89,4.8-223.78,191.92-402.65,418.66-394.29,207.07,7.55,377.1,174.67,387.82,381.57,11.16,214.45-145.12,394.67-349.76,421.68Z"/>
    </g>
  </g>
</svg>